<?xml version="1.0" encoding="UTF-8"?>
<svg xmlns="http://www.w3.org/2000/svg" xmlns:xlink="http://www.w3.org/1999/xlink" width="219.688" height="76" viewBox="0 0 219.688 76">
  <defs>
    <clipPath id="clip-path">
      <rect id="Rettangolo_2224" data-name="Rettangolo 2224" width="219.688" height="76"></rect>
    </clipPath>
  </defs>
  <g id="Raggruppa_61160" data-name="Raggruppa 61160" clip-path="url(#clip-path)">
    <path id="Tracciato_3629" data-name="Tracciato 3629" d="M199.384,68.6v.6h-4.419v2.68H199.1v.6h-4.139v2.931h4.472v.6H194.26V68.6Zm-7.634,1.48a2.09,2.09,0,0,0-.521-.566,2.319,2.319,0,0,0-.674-.349,2.49,2.49,0,0,0-.775-.119,2.663,2.663,0,0,0-1.269.282,2.515,2.515,0,0,0-.867.742,3.208,3.208,0,0,0-.5,1.046,4.508,4.508,0,0,0,0,2.385,3.19,3.19,0,0,0,.5,1.049,2.514,2.514,0,0,0,.867.742,2.663,2.663,0,0,0,1.269.282,2.21,2.21,0,0,0,1.653-.7,2.678,2.678,0,0,0,.489-.754,3.185,3.185,0,0,0,.239-.93h.7a3.963,3.963,0,0,1-.321,1.237,3.072,3.072,0,0,1-.644.936,2.74,2.74,0,0,1-.93.593,3.3,3.3,0,0,1-1.19.208,3.532,3.532,0,0,1-1.533-.317,3.2,3.2,0,0,1-1.1-.848,3.6,3.6,0,0,1-.656-1.226,5.05,5.05,0,0,1,0-2.931,3.678,3.678,0,0,1,.656-1.234,3.161,3.161,0,0,1,1.1-.852,3.706,3.706,0,0,1,2.567-.161,2.98,2.98,0,0,1,.914.462,2.694,2.694,0,0,1,.687.754,2.589,2.589,0,0,1,.349,1.03h-.709a2.368,2.368,0,0,0-.305-.766M179.781,68.6l4.323,6.277h.022V68.6h.707v7.421h-.789l-4.325-6.277h-.02v6.277h-.707V68.6Zm-2.13,0v.6h-4.417v2.68h4.137v.6h-4.137v2.931H177.7v.6h-5.175V68.6Zm-10.311,0v6.818H171.5v.6h-4.864V68.6Zm-5.894,0v6.818H165.6v.6h-4.864V68.6Zm-2.058,0v.6h-4.417v2.68h4.137v.6h-4.137v2.931h4.468v.6h-5.175V68.6Zm-7.634,1.48a2.083,2.083,0,0,0-.519-.566,2.341,2.341,0,0,0-.677-.349,2.468,2.468,0,0,0-.773-.119,2.66,2.66,0,0,0-1.267.282,2.5,2.5,0,0,0-.869.742,3.208,3.208,0,0,0-.5,1.046,4.507,4.507,0,0,0,0,2.385,3.19,3.19,0,0,0,.5,1.049,2.5,2.5,0,0,0,.869.742,2.66,2.66,0,0,0,1.267.282,2.244,2.244,0,0,0,.936-.188,2.22,2.22,0,0,0,.719-.509,2.63,2.63,0,0,0,.488-.754,3.185,3.185,0,0,0,.239-.93h.707a4.017,4.017,0,0,1-.323,1.237,3.072,3.072,0,0,1-.644.936,2.759,2.759,0,0,1-.93.593,3.3,3.3,0,0,1-1.19.208,3.532,3.532,0,0,1-1.533-.317,3.2,3.2,0,0,1-1.1-.848,3.6,3.6,0,0,1-.654-1.226,5.007,5.007,0,0,1,0-2.931,3.674,3.674,0,0,1,.654-1.234,3.161,3.161,0,0,1,1.1-.852,3.706,3.706,0,0,1,2.567-.161,3.012,3.012,0,0,1,.916.462,2.718,2.718,0,0,1,.685.754,2.559,2.559,0,0,1,.349,1.03h-.707a2.371,2.371,0,0,0-.307-.766M140.472,68.6l2.1,3.107,2.173-3.107h.789L143,72.22l2.68,3.8h-.852l-2.256-3.274-2.285,3.274h-.793l2.661-3.824-2.514-3.6Zm-1.467,0v.6h-4.417v2.68h4.137v.6h-4.137v2.931h4.47v.6h-5.175V68.6Zm-16.077,0,4.325,6.277h.02V68.6h.707v7.421h-.791l-4.323-6.277h-.02v6.277h-.707V68.6Zm-4.678,0,2.912,7.421h-.76l-.9-2.306h-3.378l-.895,2.306h-.748l2.984-7.421Zm1.008,4.509-1.433-3.8-1.486,3.8Zm-5.831,2.912h-.707V68.6h.707ZM107.484,68.6v6.818h4.157v.6h-4.864V68.6Zm-4.605,0,2.912,7.421h-.76l-.9-2.306h-3.378l-.895,2.306h-.748L102.09,68.6Zm1.008,4.509-1.433-3.8-1.488,3.8ZM99.615,68.6v.6H97.028v6.818h-.707V69.207H93.743v-.6Zm-6.943,7.421h-.707V68.6h.707Zm-6.929,0a1.859,1.859,0,0,1-.057.452,1.629,1.629,0,0,1-.172.417,1.419,1.419,0,0,1-.286.337,1.007,1.007,0,0,1-.4.208v-.446a.486.486,0,0,0,.219-.157,1.155,1.155,0,0,0,.157-.255,1.27,1.27,0,0,0,.088-.29.982.982,0,0,0,.014-.266h-.435v-1.1h.873Zm-3.317,0-.092-1.351h-.022a2.475,2.475,0,0,1-.462.679,2.526,2.526,0,0,1-.609.47,2.653,2.653,0,0,1-.711.264,3.728,3.728,0,0,1-.787.084,3.523,3.523,0,0,1-1.531-.317,3.206,3.206,0,0,1-1.1-.848,3.6,3.6,0,0,1-.654-1.226,5.05,5.05,0,0,1,0-2.931,3.674,3.674,0,0,1,.654-1.234,3.169,3.169,0,0,1,1.1-.852,3.5,3.5,0,0,1,1.531-.317,3.817,3.817,0,0,1,1.1.157,2.771,2.771,0,0,1,1.611,1.237,3.011,3.011,0,0,1,.386,1.071h-.709a1.635,1.635,0,0,0-.211-.65,2.3,2.3,0,0,0-.488-.6,2.619,2.619,0,0,0-.734-.443,2.559,2.559,0,0,0-.957-.17,2.671,2.671,0,0,0-1.267.282,2.5,2.5,0,0,0-.867.742,3.209,3.209,0,0,0-.5,1.046,4.508,4.508,0,0,0,0,2.385,3.191,3.191,0,0,0,.5,1.049,2.5,2.5,0,0,0,.867.742,2.671,2.671,0,0,0,1.267.282,2.824,2.824,0,0,0,1.1-.2,2.265,2.265,0,0,0,.815-.566,2.339,2.339,0,0,0,.5-.863,3.253,3.253,0,0,0,.157-1.091H79.786v-.6h3.148v3.773ZM69.746,68.6l4.325,6.277h.02V68.6H74.8v7.421h-.789l-4.325-6.277h-.022v6.277h-.7V68.6Zm-2.639,7.421H66.4V68.6h.707Zm-7.1-7.421v3.99L64.32,68.6h.957L61.961,71.67l3.471,4.355h-.914L61.43,72.157l-1.423,1.322v2.545H59.3V68.6Zm-3.217,1.48a2.09,2.09,0,0,0-.521-.566,2.294,2.294,0,0,0-.674-.349,2.49,2.49,0,0,0-.775-.119,2.674,2.674,0,0,0-1.269.282,2.533,2.533,0,0,0-.867.742,3.2,3.2,0,0,0-.5,1.046,4.456,4.456,0,0,0,0,2.385,3.187,3.187,0,0,0,.5,1.049,2.533,2.533,0,0,0,.867.742,2.673,2.673,0,0,0,1.269.282,2.2,2.2,0,0,0,1.653-.7,2.594,2.594,0,0,0,.489-.754,3.125,3.125,0,0,0,.239-.93h.707a4.018,4.018,0,0,1-.323,1.237,3.005,3.005,0,0,1-.644.936,2.74,2.74,0,0,1-.93.593,3.3,3.3,0,0,1-1.19.208,3.532,3.532,0,0,1-1.533-.317,3.217,3.217,0,0,1-1.1-.848,3.566,3.566,0,0,1-.654-1.226,5.007,5.007,0,0,1,0-2.931,3.639,3.639,0,0,1,.654-1.234,3.179,3.179,0,0,1,1.1-.852,3.706,3.706,0,0,1,2.567-.161,2.98,2.98,0,0,1,.914.462,2.7,2.7,0,0,1,.687.754,2.53,2.53,0,0,1,.349,1.03H57.1a2.415,2.415,0,0,0-.307-.766M47.773,68.6l2.91,7.421h-.758l-.9-2.306H45.643l-.895,2.306H44L46.984,68.6Zm1.008,4.509-1.435-3.8-1.486,3.8ZM40.966,68.6a3.211,3.211,0,0,1,.867.114,2.135,2.135,0,0,1,.719.349,1.668,1.668,0,0,1,.488.6,1.939,1.939,0,0,1,.182.867,2.079,2.079,0,0,1-.364,1.226,1.644,1.644,0,0,1-1.081.666v.022a1.657,1.657,0,0,1,.6.192,1.208,1.208,0,0,1,.39.36,1.464,1.464,0,0,1,.217.5,3.644,3.644,0,0,1,.09.619c.006.123.014.276.02.456s.022.362.041.546a3.432,3.432,0,0,0,.1.519,1,1,0,0,0,.182.38H42.64a.843.843,0,0,1-.1-.255,2.246,2.246,0,0,1-.051-.311c-.012-.108-.02-.213-.025-.317s-.014-.194-.022-.27c-.014-.264-.035-.525-.067-.785a2.1,2.1,0,0,0-.2-.7,1.213,1.213,0,0,0-.437-.5,1.341,1.341,0,0,0-.783-.166H38.273v3.3h-.707V68.6Zm-.051,3.522a1.867,1.867,0,0,0,.611-.1,1.506,1.506,0,0,0,.509-.286,1.393,1.393,0,0,0,.35-.452,1.366,1.366,0,0,0,.129-.609,1.46,1.46,0,0,0-.4-1.079,1.631,1.631,0,0,0-1.2-.4H38.273v2.919ZM28.278,68.6v6.818h4.157v.6H27.569V68.6Zm-2.06,0v.6H21.8v2.68h4.137v.6H21.8v2.931h4.47v.6H21.1V68.6Zm-6.475,0v.6H15.326v2.68h4.137v.6H15.326v2.931H19.8v.6H14.619V68.6Zm-6.132,0v.6H11.024v6.818h-.709V69.207H7.739v-.6ZM2.178,74.538a1.552,1.552,0,0,0,.515.613,2.109,2.109,0,0,0,.773.327,4.394,4.394,0,0,0,.957.1,2.631,2.631,0,0,0,.632-.084,2.19,2.19,0,0,0,.64-.264,1.631,1.631,0,0,0,.493-.468,1.188,1.188,0,0,0,.2-.691,1.01,1.01,0,0,0-.141-.54,1.307,1.307,0,0,0-.362-.386,2.144,2.144,0,0,0-.5-.253,5.061,5.061,0,0,0-.529-.163l-1.654-.405a4.818,4.818,0,0,1-.629-.208,1.813,1.813,0,0,1-.535-.333,1.559,1.559,0,0,1-.37-.509,1.761,1.761,0,0,1-.139-.738,2.389,2.389,0,0,1,.1-.634,1.749,1.749,0,0,1,.39-.685,2.244,2.244,0,0,1,.785-.544,3.111,3.111,0,0,1,1.279-.225,3.765,3.765,0,0,1,1.049.145,2.6,2.6,0,0,1,.873.439,2.095,2.095,0,0,1,.82,1.725H6.127a1.716,1.716,0,0,0-.192-.742,1.612,1.612,0,0,0-.446-.531,1.942,1.942,0,0,0-.634-.323,2.59,2.59,0,0,0-.754-.11,3.052,3.052,0,0,0-.7.078,1.8,1.8,0,0,0-.593.249,1.291,1.291,0,0,0-.411.452,1.45,1.45,0,0,0-.155.7,1.084,1.084,0,0,0,.088.452.945.945,0,0,0,.245.327,1.271,1.271,0,0,0,.358.217,2.6,2.6,0,0,0,.433.137l1.807.446a5.161,5.161,0,0,1,.742.255,2.386,2.386,0,0,1,.613.374,1.6,1.6,0,0,1,.417.546,1.838,1.838,0,0,1,.151.779,2.761,2.761,0,0,1-.025.333,1.735,1.735,0,0,1-.125.441,2.238,2.238,0,0,1-.28.474,1.794,1.794,0,0,1-.5.431,2.891,2.891,0,0,1-.785.313,4.645,4.645,0,0,1-1.122.119,4.689,4.689,0,0,1-1.216-.151,2.647,2.647,0,0,1-.957-.464,2.024,2.024,0,0,1-.607-.8,2.594,2.594,0,0,1-.182-1.173H2a2.07,2.07,0,0,0,.176.955" transform="translate(-0.027 -1.438)"></path>
    <path id="Tracciato_3630" data-name="Tracciato 3630" d="M216.772,52.886V51.708h.952a2.532,2.532,0,0,1,.3.02.84.84,0,0,1,.268.08.5.5,0,0,1,.192.172.565.565,0,0,1,.074.309.545.545,0,0,1-.116.378.569.569,0,0,1-.29.174,1.48,1.48,0,0,1-.382.045h-1Zm1.179.323a1.843,1.843,0,0,0,.413-.061.887.887,0,0,0,.333-.157.71.71,0,0,0,.221-.278,1.027,1.027,0,0,0,.076-.415.829.829,0,0,0-.258-.646,1.374,1.374,0,0,0-.918-.235h-1.453v3.323h.407V53.209h.746l.952,1.531h.488Zm-1.486,2.26a2.464,2.464,0,0,1-.8-.552,2.545,2.545,0,0,1-.523-.82,2.846,2.846,0,0,1,0-2.034,2.506,2.506,0,0,1,.523-.816,2.448,2.448,0,0,1,.8-.546,2.49,2.49,0,0,1,1.006-.2,2.442,2.442,0,0,1,1,.2,2.362,2.362,0,0,1,.791.546,2.529,2.529,0,0,1,.519.816,2.846,2.846,0,0,1,0,2.034,2.568,2.568,0,0,1-.519.82,2.377,2.377,0,0,1-.791.552,2.475,2.475,0,0,1-1,.2,2.523,2.523,0,0,1-1.006-.2m2.162.356a3.013,3.013,0,0,0,.946-.64,2.976,2.976,0,0,0,.869-2.111,2.948,2.948,0,0,0-.869-2.1,3.035,3.035,0,0,0-.946-.636,2.954,2.954,0,0,0-2.318,0,3.035,3.035,0,0,0-.946.636,2.951,2.951,0,0,0-.64.942,2.949,2.949,0,0,0,0,2.316,3.014,3.014,0,0,0,1.586,1.588,2.977,2.977,0,0,0,2.318,0" transform="translate(-4.506 -1.053)"></path>
    <path id="Tracciato_3631" data-name="Tracciato 3631" d="M177,47.068a5.926,5.926,0,0,0,1.745,1.923,7.475,7.475,0,0,0,2.457,1.1,11.506,11.506,0,0,0,2.886.358,10.673,10.673,0,0,0,2.244-.251,7.562,7.562,0,0,0,2.136-.783,4.831,4.831,0,0,0,1.6-1.425,3.728,3.728,0,0,0,.642-2.244q0-2.279-3.027-3.419a60.573,60.573,0,0,0-8.443-2.281q-2.209-.5-4.311-1.175a14.607,14.607,0,0,1-3.738-1.782,8.611,8.611,0,0,1-2.637-2.778,7.882,7.882,0,0,1-1-4.1,11.1,11.1,0,0,1,1.388-5.841,10.255,10.255,0,0,1,3.669-3.6,16.112,16.112,0,0,1,5.13-1.852,31.6,31.6,0,0,1,5.841-.535,29.21,29.21,0,0,1,5.807.572,15.351,15.351,0,0,1,5.022,1.923,11.52,11.52,0,0,1,3.667,3.6,12.073,12.073,0,0,1,1.747,5.664H190.21A4.431,4.431,0,0,0,188,26.192a10.121,10.121,0,0,0-4.7-1.032,17.625,17.625,0,0,0-1.85.106,6.236,6.236,0,0,0-1.817.464,3.726,3.726,0,0,0-1.388,1.034,2.723,2.723,0,0,0-.572,1.817,2.778,2.778,0,0,0,1,2.209,7.712,7.712,0,0,0,2.6,1.388,32.529,32.529,0,0,0,3.669.961q2.065.429,4.2.926a43.667,43.667,0,0,1,4.308,1.21,14.281,14.281,0,0,1,3.742,1.889,9.161,9.161,0,0,1,2.635,2.921,8.577,8.577,0,0,1,1,4.31,11.188,11.188,0,0,1-5.271,10.044,15.582,15.582,0,0,1-5.379,2.1,31.372,31.372,0,0,1-6.162.607,30.409,30.409,0,0,1-6.269-.642,16.546,16.546,0,0,1-5.451-2.136,12.237,12.237,0,0,1-3.918-3.955,12.38,12.38,0,0,1-1.674-6.162h9.618A5.546,5.546,0,0,0,177,47.068m-37.507.319q2.276,2.212,6.553,2.209a9.019,9.019,0,0,0,5.273-1.531,6.369,6.369,0,0,0,2.706-3.242h8.9q-2.138,6.626-6.553,9.475a19.286,19.286,0,0,1-10.687,2.851,20.987,20.987,0,0,1-7.836-1.39,16.279,16.279,0,0,1-5.913-3.953,17.774,17.774,0,0,1-3.74-6.127,22.426,22.426,0,0,1-1.32-7.838,21.478,21.478,0,0,1,1.355-7.693,17.794,17.794,0,0,1,9.8-10.258,19.05,19.05,0,0,1,7.658-1.5,17.521,17.521,0,0,1,8.192,1.817,16.372,16.372,0,0,1,5.735,4.881,20.083,20.083,0,0,1,3.242,6.98,26.093,26.093,0,0,1,.713,8.192H136.994q.214,4.916,2.494,7.125m11.433-19.378q-1.815-1.991-5.52-1.993a8.8,8.8,0,0,0-4.026.818,7.661,7.661,0,0,0-2.565,2.03,7.413,7.413,0,0,0-1.353,2.565,11.509,11.509,0,0,0-.464,2.422h16.457a11.7,11.7,0,0,0-2.53-5.843M76.44,19.39v4.987h.143a14.4,14.4,0,0,1,4.809-4.417,13.02,13.02,0,0,1,6.448-1.568,14.82,14.82,0,0,1,6.375,1.355A8.966,8.966,0,0,1,98.6,24.518a15.655,15.655,0,0,1,4.452-4.272,11.833,11.833,0,0,1,6.661-1.854,19.688,19.688,0,0,1,5.414.713,10.936,10.936,0,0,1,4.274,2.281,10.449,10.449,0,0,1,2.78,4.1,16.636,16.636,0,0,1,1,6.091V56.219H113.058V35.347q0-1.853-.143-3.491a7.393,7.393,0,0,0-.783-2.849,4.73,4.73,0,0,0-1.888-1.923,6.822,6.822,0,0,0-3.383-.713,6.473,6.473,0,0,0-3.456.818,5.919,5.919,0,0,0-2.066,2.138,8.556,8.556,0,0,0-1,2.99,22.933,22.933,0,0,0-.249,3.385V56.219H89.975V35.561q0-1.639-.07-3.242a9.1,9.1,0,0,0-.605-2.957,4.549,4.549,0,0,0-1.782-2.171,6.716,6.716,0,0,0-3.669-.818,7.6,7.6,0,0,0-1.887.319,6.3,6.3,0,0,0-2.279,1.21,7.118,7.118,0,0,0-1.887,2.567,10.4,10.4,0,0,0-.785,4.38V56.219H66.894V19.39Zm-26.856,0v6.839h.141a12.478,12.478,0,0,1,1.923-3.17,12.655,12.655,0,0,1,2.78-2.494,13.576,13.576,0,0,1,3.348-1.6,12.08,12.08,0,0,1,3.7-.572,7.85,7.85,0,0,1,2.209.358v9.4q-.714-.141-1.711-.251a18.777,18.777,0,0,0-1.923-.106,10.8,10.8,0,0,0-4.7.926,8.158,8.158,0,0,0-3.1,2.53,10.105,10.105,0,0,0-1.674,3.74,20.338,20.338,0,0,0-.5,4.631v16.6H39.966V19.39ZM24.506,41.973a19.523,19.523,0,0,1-.176,2.279,7.683,7.683,0,0,1-.961,2.816,6.7,6.7,0,0,1-2.422,2.385,8.946,8.946,0,0,1-4.633,1,12.821,12.821,0,0,1-2.35-.213,5.784,5.784,0,0,1-2-.748,3.816,3.816,0,0,1-1.353-1.461,4.752,4.752,0,0,1-.5-2.281,4.929,4.929,0,0,1,.5-2.352,4.548,4.548,0,0,1,1.316-1.531,6.762,6.762,0,0,1,1.925-.961,18.1,18.1,0,0,1,2.244-.57q1.21-.211,2.422-.356t2.316-.356a16.539,16.539,0,0,0,2.066-.535,4.529,4.529,0,0,0,1.6-.889ZM11.256,30.716a5.726,5.726,0,0,1,2-4.274,7.669,7.669,0,0,1,4.7-1.282,17.076,17.076,0,0,1,2.53.178,5.626,5.626,0,0,1,2.066.713,3.9,3.9,0,0,1,1.423,1.5,5.34,5.34,0,0,1,.535,2.6,2.74,2.74,0,0,1-.924,2.387,6.866,6.866,0,0,1-2.708,1.247,26.967,26.967,0,0,1-3.918.64q-2.209.211-4.49.57a43.53,43.53,0,0,0-4.523.961,12.766,12.766,0,0,0-3.988,1.817A9.252,9.252,0,0,0,1.1,41.01,10.744,10.744,0,0,0,0,46.175a11.542,11.542,0,0,0,.963,4.916A9.251,9.251,0,0,0,3.634,54.51a11.184,11.184,0,0,0,3.99,2,18.013,18.013,0,0,0,4.915.642,22.906,22.906,0,0,0,6.7-1,13.2,13.2,0,0,0,5.7-3.491,15.334,15.334,0,0,0,.249,1.815,13.775,13.775,0,0,0,.464,1.745H35.905a8.622,8.622,0,0,1-1-3.419,38.087,38.087,0,0,1-.286-4.772V28.864a8.862,8.862,0,0,0-1.5-5.379,10.262,10.262,0,0,0-3.845-3.17,17.281,17.281,0,0,0-5.2-1.533,41.392,41.392,0,0,0-5.627-.392A31.017,31.017,0,0,0,12.361,19a17.36,17.36,0,0,0-5.449,2.028A12.124,12.124,0,0,0,2.921,24.8,11.771,11.771,0,0,0,1.14,30.716Z" transform="translate(0 -0.387)"></path>
    <path id="Tracciato_3632" data-name="Tracciato 3632" d="M215.066,0V0l-24.9.016A1.74,1.74,0,0,0,189.1.464l-8.754,8.752c-.121.121-.08.221.094.221l9.316.006,23.611.008a.681.681,0,0,1,.683.681V43.04c0,.172.1.213.223.09l.535-.533,0,0,7.912-7.912a2.98,2.98,0,0,0,.758-1.831V1.329A1.329,1.329,0,0,0,222.146,0Z" transform="translate(-3.787 0)" fill="#f60"></path>
  </g>
</svg>
